<svg id="color" height="512" viewBox="0 0 24 24" width="512" xmlns="http://www.w3.org/2000/svg"><path d="m11 22c-.119 0-.239-.028-.348-.085-.435-.228-10.652-5.675-10.652-14.775 0-3.386 2.759-6.14 6.15-6.14 1.953 0 3.717.847 4.85 2.272 1.133-1.425 2.897-2.272 4.85-2.272 3.391 0 6.15 2.754 6.15 6.14 0 9.1-10.217 14.547-10.652 14.774-.109.058-.229.086-.348.086z" fill="#f44336"/><path d="m6.15 1c-3.391 0-6.15 2.754-6.15 6.14 0 9.1 10.217 14.547 10.652 14.774.109.058.229.086.348.086v-7.764l-1.118-2.236h-1.882c-.552 0-1-.448-1-1s.448-1 1-1h2.5c.179 0 .351.048.5.134v-6.862c-1.133-1.425-2.897-2.272-4.85-2.272z" fill="#d43a2f"/><path d="m12.5 16c-.379 0-.725-.214-.895-.553l-1.723-3.447h-1.882c-.552 0-1-.448-1-1s.448-1 1-1h2.5c.379 0 .725.214.895.553l1.105 2.211 3.105-6.211c.16-.319.477-.529.833-.551.356-.023.697.147.894.443l3.703 5.555h1.965c.552 0 1 .448 1 1s-.448 1-1 1h-2.5c-.334 0-.646-.167-.832-.445l-3.044-4.566-3.229 6.459c-.17.338-.516.552-.895.552z" fill="#eceff1"/><path d="m16.503 6-.065.002c-.356.022-.673.232-.833.551l-3.105 6.211-1.105-2.211c-.17-.339-.516-.553-.895-.553h-2.5c-.552 0-1 .448-1 1s.448 1 1 1h1.882l1.724 3.447c.169.339.515.553.894.553s.725-.214.895-.553l3.229-6.459v-2.981z" fill="#cdd0d2"/></svg>